<svg id="visual" viewBox="0 0 960 540" width="960" height="540" xmlns="http://www.w3.org/2000/svg" xmlns:xlink="http://www.w3.org/1999/xlink" version="1.1"><path d="M0 403L22.8 415.3C45.7 427.7 91.3 452.3 137 459.8C182.7 467.3 228.3 457.7 274 456.3C319.7 455 365.3 462 411.2 455.2C457 448.3 503 427.7 548.8 423.5C594.7 419.3 640.3 431.7 686 440.5C731.7 449.3 777.3 454.7 823 454C868.7 453.3 914.3 446.7 937.2 443.3L960 440L960 541L937.2 541C914.3 541 868.7 541 823 541C777.3 541 731.7 541 686 541C640.3 541 594.7 541 548.8 541C503 541 457 541 411.2 541C365.3 541 319.7 541 274 541C228.3 541 182.7 541 137 541C91.3 541 45.7 541 22.8 541L0 541Z" fill="#ff0066"></path><path d="M0 438L22.8 438.5C45.7 439 91.3 440 137 448.3C182.7 456.7 228.3 472.3 274 480.8C319.7 489.3 365.3 490.7 411.2 492.2C457 493.7 503 495.3 548.8 488.3C594.7 481.3 640.3 465.7 686 459.5C731.7 453.3 777.3 456.7 823 462.3C868.7 468 914.3 476 937.2 480L960 484L960 541L937.2 541C914.3 541 868.7 541 823 541C777.3 541 731.7 541 686 541C640.3 541 594.7 541 548.8 541C503 541 457 541 411.2 541C365.3 541 319.7 541 274 541C228.3 541 182.7 541 137 541C91.3 541 45.7 541 22.8 541L0 541Z" fill="#ffa0af"></path><path d="M0 522L22.8 519.2C45.7 516.3 91.3 510.7 137 507.8C182.7 505 228.3 505 274 501.7C319.7 498.3 365.3 491.7 411.2 491.5C457 491.3 503 497.7 548.8 504.2C594.7 510.7 640.3 517.3 686 517.2C731.7 517 777.3 510 823 509.5C868.7 509 914.3 515 937.2 518L960 521L960 541L937.2 541C914.3 541 868.7 541 823 541C777.3 541 731.7 541 686 541C640.3 541 594.7 541 548.8 541C503 541 457 541 411.2 541C365.3 541 319.7 541 274 541C228.3 541 182.7 541 137 541C91.3 541 45.7 541 22.8 541L0 541Z" fill="#ffffff"></path></svg>